<svg width="87" height="48" viewBox="0 0 87 48" fill="none" xmlns="http://www.w3.org/2000/svg">
<g filter="url(#filter0_d_2701_1086)">
<path d="M5.66993 15.4324C5.17038 15.4324 4.7636 15.2825 4.4496 14.9828C4.14987 14.6688 4 14.262 4 13.7625V1.7732C4 1.27365 4.13559 0.888282 4.40678 0.617097C4.67796 0.345911 5.06333 0.210318 5.56289 0.210318H12.9277C13.4701 0.210318 13.8697 0.317365 14.1266 0.531459C14.3836 0.745553 14.512 1.08097 14.512 1.5377C14.512 1.98016 14.3836 2.30844 14.1266 2.52253C13.8697 2.73663 13.4701 2.84367 12.9277 2.84367H7.29704V6.31199H12.4995C13.0419 6.31199 13.4415 6.41904 13.6984 6.63313C13.9554 6.84723 14.0838 7.18264 14.0838 7.63937C14.0838 8.08183 13.9554 8.41011 13.6984 8.62421C13.4415 8.8383 13.0419 8.94535 12.4995 8.94535H7.29704V13.7625C7.29704 14.2763 7.14718 14.6831 6.84745 14.9828C6.56199 15.2825 6.16948 15.4324 5.66993 15.4324Z" fill="#2B2B43"/>
<path d="M20.8385 15.4752C19.7252 15.4752 18.7475 15.254 17.9054 14.8115C17.0633 14.3548 16.4139 13.7196 15.9571 12.9061C15.5004 12.0783 15.272 11.1077 15.272 9.99441C15.272 8.88112 15.5004 7.9177 15.9571 7.10414C16.4139 6.27631 17.0633 5.64117 17.9054 5.1987C18.7475 4.75624 19.7252 4.53501 20.8385 4.53501C21.9518 4.53501 22.9295 4.75624 23.7716 5.1987C24.6137 5.64117 25.2631 6.27631 25.7198 7.10414C26.1766 7.9177 26.4049 8.88112 26.4049 9.99441C26.4049 11.1077 26.1766 12.0783 25.7198 12.9061C25.2631 13.7196 24.6137 14.3548 23.7716 14.8115C22.9295 15.254 21.9518 15.4752 20.8385 15.4752ZM20.8385 13.0131C22.4085 13.0131 23.1935 12.0069 23.1935 9.99441C23.1935 8.98103 22.9866 8.22456 22.5726 7.72501C22.173 7.22546 21.5949 6.97568 20.8385 6.97568C19.2685 6.97568 18.4834 7.98192 18.4834 9.99441C18.4834 12.0069 19.2685 13.0131 20.8385 13.0131Z" fill="#2B2B43"/>
<path d="M33.4249 15.4752C32.3116 15.4752 31.3339 15.254 30.4918 14.8115C29.6497 14.3548 29.0002 13.7196 28.5435 12.9061C28.0868 12.0783 27.8584 11.1077 27.8584 9.99441C27.8584 8.88112 28.0868 7.9177 28.5435 7.10414C29.0002 6.27631 29.6497 5.64117 30.4918 5.1987C31.3339 4.75624 32.3116 4.53501 33.4249 4.53501C34.5381 4.53501 35.5158 4.75624 36.3579 5.1987C37.2 5.64117 37.8495 6.27631 38.3062 7.10414C38.7629 7.9177 38.9913 8.88112 38.9913 9.99441C38.9913 11.1077 38.7629 12.0783 38.3062 12.9061C37.8495 13.7196 37.2 14.3548 36.3579 14.8115C35.5158 15.254 34.5381 15.4752 33.4249 15.4752ZM33.4249 13.0131C34.9949 13.0131 35.7799 12.0069 35.7799 9.99441C35.7799 8.98103 35.5729 8.22456 35.159 7.72501C34.7594 7.22546 34.1813 6.97568 33.4249 6.97568C31.8548 6.97568 31.0698 7.98192 31.0698 9.99441C31.0698 12.0069 31.8548 13.0131 33.4249 13.0131Z" fill="#2B2B43"/>
<path d="M49.9291 0.103271C50.4287 0.103271 50.8283 0.238864 51.1281 0.51005C51.4421 0.781235 51.5991 1.13806 51.5991 1.58052V13.9123C51.5991 14.3691 51.4492 14.7402 51.1495 15.0256C50.864 15.2968 50.4786 15.4324 49.9934 15.4324C49.5081 15.4324 49.1156 15.2968 48.8159 15.0256C48.5304 14.7402 48.3877 14.3691 48.3877 13.9123V13.741C48.0737 14.2834 47.6241 14.7116 47.0389 15.0256C46.468 15.3253 45.8185 15.4752 45.0906 15.4752C44.1914 15.4752 43.385 15.2468 42.6714 14.7901C41.972 14.3191 41.4225 13.6697 41.0228 12.8419C40.6375 11.9998 40.4448 11.0363 40.4448 9.95159C40.4448 8.86685 40.6375 7.9177 41.0228 7.10414C41.4225 6.27631 41.972 5.64117 42.6714 5.1987C43.3707 4.75624 44.1772 4.53501 45.0906 4.53501C45.8043 4.53501 46.4466 4.68488 47.0175 4.98461C47.6027 5.28434 48.0523 5.70539 48.3663 6.24777V1.51629C48.3663 1.0881 48.509 0.745553 48.7944 0.488641C49.0799 0.231728 49.4581 0.103271 49.9291 0.103271ZM46.0326 13.0131C46.7891 13.0131 47.3672 12.7562 47.7668 12.2424C48.1807 11.7143 48.3877 10.965 48.3877 9.99441C48.3877 9.02385 48.1807 8.28166 47.7668 7.76783C47.3672 7.254 46.7891 6.99709 46.0326 6.99709C45.2762 6.99709 44.691 7.254 44.2771 7.76783C43.8632 8.26738 43.6562 8.9953 43.6562 9.95159C43.6562 10.9221 43.8632 11.6786 44.2771 12.221C44.691 12.7491 45.2762 13.0131 46.0326 13.0131Z" fill="#2B2B43"/>
<path d="M13.4844 20.6566C13.9839 20.6566 14.3836 20.7921 14.6833 21.0633C14.9973 21.3345 15.1543 21.6913 15.1543 22.1338V34.4656C15.1543 34.9223 15.0044 35.2934 14.7047 35.5789C14.4192 35.8501 14.0339 35.9857 13.5486 35.9857C13.0633 35.9857 12.6708 35.8501 12.3711 35.5789C12.0856 35.2934 11.9429 34.9223 11.9429 34.4656V34.2943C11.6289 34.8367 11.1793 35.2649 10.5941 35.5789C10.0232 35.8786 9.37376 36.0285 8.64584 36.0285C7.74664 36.0285 6.94022 35.8001 6.22657 35.3434C5.5272 34.8724 4.9777 34.223 4.57806 33.3951C4.19269 32.553 4 31.5896 4 30.5049C4 29.4201 4.19269 28.471 4.57806 27.6574C4.9777 26.8296 5.5272 26.1944 6.22657 25.752C6.92595 25.3095 7.73237 25.0883 8.64584 25.0883C9.35949 25.0883 10.0018 25.2382 10.5727 25.5379C11.1579 25.8376 11.6075 26.2587 11.9215 26.801V22.0696C11.9215 21.6414 12.0642 21.2988 12.3497 21.0419C12.6351 20.785 13.0134 20.6566 13.4844 20.6566ZM9.58785 33.5664C10.3443 33.5664 10.9224 33.3095 11.322 32.7957C11.7359 32.2676 11.9429 31.5182 11.9429 30.5477C11.9429 29.5771 11.7359 28.8349 11.322 28.3211C10.9224 27.8073 10.3443 27.5504 9.58785 27.5504C8.83139 27.5504 8.24619 27.8073 7.83228 28.3211C7.41836 28.8207 7.21141 29.5486 7.21141 30.5049C7.21141 31.4754 7.41836 32.2319 7.83228 32.7743C8.24619 33.3024 8.83139 33.5664 9.58785 33.5664Z" fill="#4E60FF"/>
<path d="M26.0791 32.7314C26.3646 32.7314 26.5929 32.8456 26.7642 33.074C26.9497 33.3024 27.0425 33.595 27.0425 33.9518C27.0425 34.1944 26.9712 34.4228 26.8284 34.6369C26.6857 34.8367 26.4859 35.008 26.229 35.1507C25.7437 35.4076 25.1799 35.6217 24.5376 35.793C23.8953 35.95 23.303 36.0285 22.7606 36.0285C21.6188 36.0285 20.6197 35.8073 19.7633 35.3648C18.9212 34.9223 18.2718 34.2943 17.8151 33.4808C17.3583 32.6529 17.13 31.6824 17.13 30.5691C17.13 29.4986 17.3512 28.5495 17.7937 27.7216C18.2361 26.8938 18.8499 26.2515 19.6349 25.7948C20.4199 25.3238 21.3119 25.0883 22.311 25.0883C23.2673 25.0883 24.1023 25.3024 24.8159 25.7306C25.5439 26.1445 26.1076 26.744 26.5073 27.529C26.9069 28.2997 27.1067 29.206 27.1067 30.248C27.1067 30.562 27.0282 30.8046 26.8712 30.9759C26.7285 31.1329 26.5216 31.2114 26.2504 31.2114H20.2557C20.3557 32.0535 20.6126 32.6672 21.0265 33.0526C21.4404 33.4237 22.0327 33.6092 22.8035 33.6092C23.2174 33.6092 23.5885 33.5593 23.9167 33.4594C24.245 33.3595 24.609 33.2239 25.0086 33.0526C25.2085 32.9669 25.4011 32.8956 25.5867 32.8385C25.7722 32.7671 25.9364 32.7314 26.0791 32.7314ZM22.3967 27.3149C21.7829 27.3149 21.2905 27.5147 20.9194 27.9143C20.5483 28.2997 20.3271 28.8635 20.2557 29.6057H24.3878C24.3449 28.8492 24.1523 28.2783 23.8097 27.8929C23.4814 27.5076 23.0104 27.3149 22.3967 27.3149Z" fill="#4E60FF"/>
<path d="M30.6865 35.9857C30.2155 35.9857 29.823 35.8572 29.5089 35.6003C29.2092 35.3434 29.0593 34.9652 29.0593 34.4656V22.1766C29.0593 21.6771 29.2092 21.2988 29.5089 21.0419C29.823 20.785 30.2155 20.6566 30.6865 20.6566C31.1432 20.6566 31.5214 20.785 31.8212 21.0419C32.1352 21.2988 32.2922 21.6771 32.2922 22.1766V34.4656C32.2922 34.9652 32.1352 35.3434 31.8212 35.6003C31.5214 35.8572 31.1432 35.9857 30.6865 35.9857Z" fill="#4E60FF"/>
<path d="M36.3942 35.9857C35.9232 35.9857 35.5307 35.8572 35.2167 35.6003C34.917 35.3434 34.7671 34.9652 34.7671 34.4656V26.6512C34.7671 26.1516 34.9241 25.7734 35.2381 25.5165C35.5521 25.2596 35.9375 25.1311 36.3942 25.1311C36.851 25.1311 37.2292 25.2596 37.5289 25.5165C37.8429 25.7734 37.9999 26.1516 37.9999 26.6512V34.4656C37.9999 34.9652 37.8429 35.3434 37.5289 35.6003C37.2292 35.8572 36.851 35.9857 36.3942 35.9857ZM36.3942 23.4184C35.8233 23.4184 35.3737 23.2756 35.0454 22.9902C34.7172 22.6904 34.553 22.2908 34.553 21.7913C34.553 21.2917 34.7172 20.8992 35.0454 20.6137C35.3737 20.3283 35.8233 20.1855 36.3942 20.1855C36.9509 20.1855 37.3933 20.3354 37.7216 20.6351C38.0642 20.9206 38.2354 21.306 38.2354 21.7913C38.2354 22.2908 38.0713 22.6904 37.743 22.9902C37.4148 23.2756 36.9652 23.4184 36.3942 23.4184Z" fill="#4E60FF"/>
<path d="M47.647 26.0517C47.7898 25.752 47.9753 25.5308 48.2037 25.388C48.4463 25.231 48.7032 25.1525 48.9744 25.1525C49.3741 25.1525 49.7309 25.2881 50.0449 25.5593C50.3589 25.8162 50.5159 26.1302 50.5159 26.5013C50.5159 26.7154 50.4659 26.9224 50.366 27.1222L46.5123 35.0222C46.3696 35.3363 46.1555 35.5789 45.8701 35.7502C45.5846 35.9072 45.2777 35.9857 44.9495 35.9857C44.6212 35.9857 44.3143 35.9072 44.0289 35.7502C43.7434 35.5789 43.5222 35.3363 43.3652 35.0222L39.5115 27.1222C39.4258 26.9224 39.383 26.7297 39.383 26.5441C39.383 26.1588 39.5472 25.8305 39.8754 25.5593C40.218 25.2881 40.5962 25.1525 41.0101 25.1525C41.3099 25.1525 41.5811 25.231 41.8237 25.388C42.0663 25.5308 42.259 25.752 42.4017 26.0517L45.0351 31.8108L47.647 26.0517Z" fill="#4E60FF"/>
<path d="M60.1376 32.7314C60.423 32.7314 60.6514 32.8456 60.8227 33.074C61.0082 33.3024 61.101 33.595 61.101 33.9518C61.101 34.1944 61.0296 34.4228 60.8869 34.6369C60.7442 34.8367 60.5444 35.008 60.2874 35.1507C59.8022 35.4076 59.2384 35.6217 58.5961 35.793C57.9538 35.95 57.3615 36.0285 56.8191 36.0285C55.6773 36.0285 54.6782 35.8073 53.8218 35.3648C52.9797 34.9223 52.3303 34.2943 51.8736 33.4808C51.4168 32.6529 51.1885 31.6824 51.1885 30.5691C51.1885 29.4986 51.4097 28.5495 51.8521 27.7216C52.2946 26.8938 52.9083 26.2515 53.6934 25.7948C54.4784 25.3238 55.3704 25.0883 56.3695 25.0883C57.3258 25.0883 58.1608 25.3024 58.8744 25.7306C59.6023 26.1445 60.1661 26.744 60.5658 27.529C60.9654 28.2997 61.1652 29.206 61.1652 30.248C61.1652 30.562 61.0867 30.8046 60.9297 30.9759C60.787 31.1329 60.58 31.2114 60.3089 31.2114H54.3142C54.4141 32.0535 54.6711 32.6672 55.085 33.0526C55.4989 33.4237 56.0912 33.6092 56.8619 33.6092C57.2759 33.6092 57.6469 33.5593 57.9752 33.4594C58.3035 33.3595 58.6675 33.2239 59.0671 33.0526C59.2669 32.9669 59.4596 32.8956 59.6452 32.8385C59.8307 32.7671 59.9949 32.7314 60.1376 32.7314ZM56.4552 27.3149C55.8414 27.3149 55.349 27.5147 54.9779 27.9143C54.6068 28.2997 54.3856 28.8635 54.3142 29.6057H58.4462C58.4034 28.8492 58.2107 28.2783 57.8682 27.8929C57.5399 27.5076 57.0689 27.3149 56.4552 27.3149Z" fill="#4E60FF"/>
<path d="M69.3908 25.1311C69.819 25.1026 70.1544 25.2025 70.397 25.4308C70.6539 25.6449 70.7824 25.9732 70.7824 26.4157C70.7824 26.8867 70.6682 27.2364 70.4398 27.4647C70.2115 27.6931 69.8047 27.8358 69.2195 27.8929L68.5772 27.9572C67.7922 28.0428 67.2213 28.2997 66.8645 28.7279C66.5219 29.1561 66.3507 29.7056 66.3507 30.3764V34.4656C66.3507 34.9652 66.1936 35.3434 65.8796 35.6003C65.5799 35.8572 65.2017 35.9857 64.7449 35.9857C64.2739 35.9857 63.8814 35.8572 63.5674 35.6003C63.2677 35.3434 63.1178 34.9652 63.1178 34.4656V26.6084C63.1178 26.1374 63.2748 25.7734 63.5888 25.5165C63.9028 25.2596 64.2811 25.1311 64.7235 25.1311C65.1517 25.1311 65.5085 25.2596 65.794 25.5165C66.0795 25.7591 66.2222 26.1017 66.2222 26.5441V27.1222C66.4791 26.5085 66.8645 26.0374 67.3783 25.7092C67.9064 25.3809 68.4773 25.1953 69.091 25.1525L69.3908 25.1311Z" fill="#4E60FF"/>
<path d="M79.5311 26.0517C79.6596 25.752 79.838 25.5308 80.0664 25.388C80.309 25.2453 80.5659 25.1739 80.8371 25.1739C81.251 25.1739 81.615 25.3095 81.929 25.5807C82.243 25.8376 82.4 26.1516 82.4 26.5227C82.4 26.7225 82.35 26.9224 82.2501 27.1222L76.491 38.9402C76.3483 39.2399 76.1556 39.4611 75.913 39.6039C75.6703 39.7609 75.4134 39.8394 75.1422 39.8394C74.7426 39.8394 74.3929 39.7109 74.0932 39.454C73.7934 39.1971 73.6436 38.8831 73.6436 38.512C73.6436 38.2836 73.6935 38.0695 73.7934 37.8697L75.2064 34.9366L71.3956 27.1222C71.3099 26.9224 71.2671 26.7297 71.2671 26.5441C71.2671 26.1588 71.4313 25.8305 71.7595 25.5593C72.1021 25.2881 72.4874 25.1525 72.9156 25.1525C73.2011 25.1525 73.4651 25.231 73.7078 25.388C73.9504 25.5308 74.1431 25.752 74.2858 26.0517L76.9406 31.8323L79.5311 26.0517Z" fill="#4E60FF"/>
</g>
<defs>
<filter id="filter0_d_2701_1086" x="0" y="0.103271" width="86.4" height="47.7361" filterUnits="userSpaceOnUse" color-interpolation-filters="sRGB">
<feFlood flood-opacity="0" result="BackgroundImageFix"/>
<feColorMatrix in="SourceAlpha" type="matrix" values="0 0 0 0 0 0 0 0 0 0 0 0 0 0 0 0 0 0 127 0" result="hardAlpha"/>
<feOffset dy="4"/>
<feGaussianBlur stdDeviation="2"/>
<feComposite in2="hardAlpha" operator="out"/>
<feColorMatrix type="matrix" values="0 0 0 0 0 0 0 0 0 0 0 0 0 0 0 0 0 0 0.25 0"/>
<feBlend mode="normal" in2="BackgroundImageFix" result="effect1_dropShadow_2701_1086"/>
<feBlend mode="normal" in="SourceGraphic" in2="effect1_dropShadow_2701_1086" result="shape"/>
</filter>
</defs>
</svg>
